<svg height="512" viewBox="0 0 512 512" width="512" xmlns="http://www.w3.org/2000/svg"><g><path d="m88 392-48-240 136 88 80-136 80 144 136-88-48 232z" fill="#ff9811"/><g fill="#ffda44"><path d="m440 424h-368l8-32h352z"/><circle cx="40" cy="160" r="24"/><circle cx="256" cy="112" r="24"/><circle cx="472" cy="160" r="24"/></g><path d="m472 128a32.03 32.03 0 0 0 -32 32 31.537 31.537 0 0 0 1.35 9.17l-105.79 63.92-56.64-98.79a32 32 0 1 0 -45.84 0l-56.64 98.79-105.79-63.92a31.537 31.537 0 0 0 1.35-9.17 32 32 0 1 0 -33.56 31.96l39.78 192.25a7.986 7.986 0 0 0 -5.98 5.85l-8 32a8 8 0 0 0 7.76 9.94h368a8 8 0 0 0 7.76-9.94l-8-32a7.986 7.986 0 0 0 -5.98-5.85l39.78-192.25a32 32 0 0 0 -1.56-63.96zm-216-32a16 16 0 1 1 -16 16 16.021 16.021 0 0 1 16-16zm-212.73 79.66a.037.037 0 0 0 -.03.01.433.433 0 0 0 -.05.01 16.878 16.878 0 1 1 .08-.02zm38.98 240.34 4-16h339.5l4 16zm335.24-32h-322.98l-40.4-195.29a32.084 32.084 0 0 0 8.25-5.85l112.81 68.16a8.005 8.005 0 0 0 4.14 1.15 7.7 7.7 0 0 0 2.01-.26 7.951 7.951 0 0 0 4.93-3.76l60.5-105.52a31.912 31.912 0 0 0 18.5 0l60.5 105.52a7.951 7.951 0 0 0 4.93 3.76 7.7 7.7 0 0 0 2.01.26 8.005 8.005 0 0 0 4.14-1.15l112.81-68.16a32.084 32.084 0 0 0 8.25 5.85zm54.51-208a15.979 15.979 0 0 1 -3.19-.32.433.433 0 0 0 -.05-.01.037.037 0 0 0 -.03-.01 15.99 15.99 0 1 1 3.27.34z"/></g></svg>