<svg height="511pt" viewBox="0 -21 511.99927 511" width="511pt" xmlns="http://www.w3.org/2000/svg"><g fill-rule="evenodd"><path d="m412.839844 234.878906c0-86.484375-70.355469-156.84375-156.839844-156.84375s-156.84375 70.359375-156.84375 156.84375c0 86.480469 70.359375 156.839844 156.84375 156.839844s156.839844-70.359375 156.839844-156.839844zm-156.839844 136.84375c-75.457031 0-136.84375-61.390625-136.84375-136.84375 0-75.457031 61.386719-136.84375 136.84375-136.84375 75.453125 0 136.84375 61.386719 136.84375 136.84375 0 75.453125-61.390625 136.84375-136.84375 136.84375zm0 0"/><path d="m294.078125 23.871094c102.152344 18.308594 176.300781 107.046875 176.300781 211.007812 0 5.523438 4.476563 10 10 10 5.519532 0 10-4.476562 10-10 0-55.316406-19.636718-109.015625-55.289062-151.199218-35.230469-41.6875-84.054688-69.917969-137.484375-79.496094-5.429688-.972656-10.632813 2.644531-11.605469 8.082031-.976562 5.433594 2.640625 10.632813 8.078125 11.605469zm0 0"/><path d="m214.390625 465.570312c.597656.109376 1.191406.160157 1.777344.160157 4.75 0 8.960937-3.398438 9.828125-8.238281.976562-5.4375-2.640625-10.632813-8.078125-11.605469-102.152344-18.308594-176.296875-107.050781-176.296875-211.007813 0-5.523437-4.480469-10-10-10-5.523438 0-10 4.476563-10 10 0 55.316406 19.632812 109.011719 55.285156 151.199219 35.230469 41.6875 84.058594 69.917969 137.484375 79.492187zm0 0"/><path d="m345.753906 226.21875-130.992187-75.632812c-3.09375-1.785157-6.90625-1.785157-10 0-3.09375 1.789062-5 5.089843-5 8.660156v151.261718c0 3.574219 1.90625 6.875 5 8.660157 1.546875.894531 3.273437 1.339843 5 1.339843 1.726562 0 3.453125-.445312 5-1.339843l130.992187-75.628907c3.09375-1.789062 5-5.089843 5-8.660156 0-3.574218-1.90625-6.875-5-8.660156zm-125.992187 66.96875v-116.621094l100.992187 58.3125zm0 0"/><path d="m28.960938 187.605469c.171874.308593.355468.605469.554687.894531.054687.074219.101563.152344.15625.226562.238281.320313.492187.628907.769531.921876.070313.074218.144532.144531.21875.214843.222656.222657.457032.4375.703125.640625.085938.066406.167969.140625.257813.207032.628906.488281 1.328125.898437 2.078125 1.230468.101562.042969.203125.082032.304687.121094.277344.113281.5625.210938.855469.296875.117187.035156.230469.070313.351563.101563.0625.019531.125.042968.1875.054687.210937.050781.421874.078125.632812.113281.144531.023438.289062.058594.4375.078125.421875.050781.839844.082031 1.253906.082031.351563 0 .703125-.023437 1.054688-.0625.097656-.011718.191406-.023437.289062-.039062.292969-.039062.578125-.089844.859375-.15625.070313-.015625.140625-.023438.207031-.042969.347657-.085937.683594-.191406 1.015626-.3125.082031-.03125.164062-.066406.246093-.097656.292969-.117187.578125-.246094.855469-.386719.042969-.019531.085938-.035156.128906-.058594l52.519532-27.710937c4.882812-2.578125 6.753906-8.625 4.175781-13.511719-2.578125-4.882812-8.625-6.753906-13.511719-4.175781l-31.550781 16.648437c25.519531-71.855468 87.722656-125.347656 163.910156-139.003906 5.433594-.972656 9.050781-6.171875 8.078125-11.605468-.976562-5.4375-6.171875-9.054688-11.609375-8.082032-44.941406 8.058594-86.300781 29.003906-119.601563 60.570313-27.050781 25.644531-47.398437 56.972656-59.691406 91.636719l-16.25-30.792969c-2.578125-4.886719-8.625-6.753907-13.511718-4.179688-4.886719 2.578125-6.757813 8.628907-4.179688 13.511719l27.710938 52.515625c.027343.054687.066406.097656.09375.152344zm0 0"/><path d="m510.839844 334.816406-27.710938-52.515625c-.046875-.089843-.105468-.171875-.15625-.261719-.085937-.15625-.175781-.3125-.273437-.464843-.089844-.136719-.183594-.269531-.273438-.402344-.09375-.128906-.1875-.257813-.285156-.382813-.109375-.136718-.21875-.269531-.332031-.398437-.101563-.113281-.199219-.226563-.304688-.335937-.121094-.125-.242187-.246094-.371094-.363282-.109374-.105468-.222656-.210937-.339843-.3125-.128907-.109375-.253907-.210937-.386719-.308594-.128906-.101562-.261719-.199218-.394531-.292968-.125-.089844-.253907-.175782-.386719-.257813-.144531-.09375-.292969-.179687-.445312-.265625-.128907-.074218-.265626-.144531-.398438-.210937-.15625-.078125-.308594-.152344-.46875-.222657-.144531-.066406-.296875-.125-.445312-.179687-.152344-.058594-.300782-.113281-.453126-.167969-.175781-.054687-.351562-.101562-.527343-.152344-.09375-.023437-.1875-.058593-.285157-.082031-.046874-.011719-.089843-.015625-.136718-.027343-.1875-.039063-.375-.074219-.566406-.101563-.136719-.023437-.273438-.050781-.414063-.066406-.183594-.023438-.367187-.035157-.550781-.046875-.144532-.007813-.289063-.023438-.433594-.023438-.175781-.003906-.355469.003906-.53125.007813-.148438.007812-.296875.007812-.445312.015625-.175782.015625-.347657.039062-.519532.0625-.148437.019531-.300781.035156-.449218.0625-.167969.027344-.332032.070312-.5.105468-.152344.035157-.304688.066407-.453126.109376-.15625.042968-.3125.097656-.464843.152343-.160157.050781-.316407.101563-.472657.164063-.144531.054687-.285156.117187-.425781.183594-.164062.070312-.324219.140624-.484375.222656-.042968.023437-.089844.039062-.132812.0625l-52.515625 27.710937c-4.886719 2.578125-6.757813 8.628907-4.179688 13.511719s8.625 6.753906 13.511719 4.175781l31.550781-16.648437c-25.519531 71.855468-87.722656 125.347656-163.910156 139.003906-5.433594.972656-9.054687 6.171875-8.078125 11.605469.867188 4.839843 5.082031 8.238281 9.832031 8.238281.585938 0 1.179688-.050781 1.773438-.160156 44.945312-8.054688 86.304687-29 119.605469-60.570313 27.050781-25.644531 47.398437-56.96875 59.695312-91.632812l16.25 30.792969c1.789062 3.398437 5.261719 5.335937 8.851562 5.335937 1.574219 0 3.171876-.375 4.660157-1.160156 4.882812-2.574219 6.75-8.621094 4.171875-13.507813zm0 0"/><path d="m246 459.257812c0 5.503907 4.492188 10 10 10s10-4.496093 10-10c0-5.507812-4.492188-10-10-10s-10 4.492188-10 10zm0 0"/><path d="m256 20.5c5.507812 0 10-4.492188 10-10s-4.492188-10-10-10-10 4.492188-10 10 4.492188 10 10 10zm0 0"/></g></svg>